<svg xmlns="http://www.w3.org/2000/svg" version="1.1" xmlns:xlink="http://www.w3.org/1999/xlink" xmlns:svgjs="http://svgjs.dev/svgjs" width="100%" height="100%" viewBox="0 0 1000 600"><rect width="1000" height="600" x="0" y="0" fill="purple"/><g><circle r="166.66666666666666" cx="317.21125284830725" cy="339.4335444083719" fill="#c801ff" transform="matrix(0.8303183393365077,0,0,0.8303183393365077,0,18.162099003771303)"/><path d="M361.4945359007021 279.5643654763432L356.6879376463925 289.00691352622937Q355.7493711233617 290.54274965482534 354.7254803709644 291.31066771912333Q353.7015896185671 292.0785857834213 352.0804292606047 292.0785857834213L352.0804292606047 292.0785857834213Q350.3455032634871 292.0785857834213 348.04174907059314 290.31521837651485Q345.73799487769924 288.5802923793972 342.18281865409756 286.47562805502497Q338.6560838402846 284.39940514044156 333.707278537031 282.6360377335351Q328.7300318239886 280.9011117364175 321.6765621963628 280.9011117364175L321.6765621963628 280.9011117364175Q315.02127230578037 280.9011117364175 309.90181854379387 282.69292055311274Q304.7823647818074 284.484729369808 301.34095419736093 287.5564016269999Q297.8995436129145 290.62807388419174 296.16461761579683 294.78051971335856Q294.4296916186792 298.9329655425254 294.4296916186792 303.7395637968349L294.4296916186792 303.7395637968349Q294.4296916186792 309.88290831121867 297.44448105629345 313.92158850123025Q300.45927049390775 317.9602686912418 305.43651720695016 320.832851079912Q310.41376391999256 323.7054334685822 316.6993154833204 325.8100977929544Q322.9848670466482 327.91476211732663 329.61171552744185 330.1616334906429Q336.2101225984466 332.4085048639592 342.49567416177445 335.2242044330518Q348.80966713489113 338.03990400214434 353.75847243814474 342.3345568802552Q358.73571915118714 346.6292097583661 361.7505085888014 352.8863199119051Q364.7652980264157 359.14343006544414 364.7652980264157 368.24468119786457L364.7652980264157 368.24468119786457Q364.7652980264157 377.8578777064836 361.4945359007021 386.30497641376127Q358.2237737749885 394.75207512103896 351.9097808018718 401.00918527457804Q345.624229238544 407.266295428117 336.46609528654596 410.84991306150755Q327.30796133454794 414.4335306948981 315.61854191134546 414.4335306948981L315.61854191134546 414.4335306948981Q301.3978370169386 414.4335306948981 289.6799761839473 409.257194113334Q277.9336739411672 404.0808575317699 269.65722369262244 395.26402049723765L269.65722369262244 395.26402049723765L275.373947060174 385.8499138571403Q276.1987479440496 384.74069887537655 277.3932871551798 383.97278081107856Q278.5593849565211 383.2048627467806 279.98145544596184 383.2048627467806L279.98145544596184 383.2048627467806Q282.14300258991165 383.2048627467806 284.9018193394266 385.5086169396745Q287.66063608894154 387.8123711325684 291.8130819181083 390.57118788208334Q295.96552774727513 393.3300046315983 301.8528995735596 395.6337588244922Q307.74027139984406 397.9375130173861 316.24425292669935 397.9375130173861L316.24425292669935 397.9375130173861Q323.2977225543252 397.9375130173861 328.84379746314386 396.0034971517468Q334.36143096217376 394.0410398763186 338.20102128366364 390.51430506250574Q342.04061160515346 386.9875702486928 344.088393109948 382.06720635522805Q346.13617461474263 377.14684246176324 346.13617461474263 371.1172635865347L346.13617461474263 371.1172635865347Q346.13617461474263 364.46197369595234 343.1213851771284 360.19576222763027Q340.1065957395141 355.957992169097 335.18623184604934 353.0854097804268Q330.2658679525846 350.2128273917566 323.9803163892567 348.22192870653964Q317.66632341614 346.2310300213227 311.06791634513525 344.1263656969505Q304.4695092741305 342.02170137257826 298.1555163010138 339.2628846230633Q291.86996473768596 336.50406787354837 286.9496008442212 332.09564935628225Q282.0292369507564 327.6872308390161 279.01444751314216 321.0888237680113Q275.9996580755279 314.49041669700654 275.9996580755279 304.7634545492322L275.9996580755279 304.7634545492322Q275.9996580755279 296.9705082670973 279.01444751314216 289.71794877094976Q282.0292369507564 282.4369478650134 287.7744017280968 276.8055487268283Q293.5195665054372 271.17414958864316 301.9666652127148 267.7896218237743Q310.41376391999256 264.43353546869434 321.36370668868585 264.43353546869434L321.36370668868585 264.43353546869434Q333.6503957174534 264.43353546869434 343.7755376022711 268.30156719997296Q353.92912089687763 272.1980403410405 361.4945359007021 279.5643654763432L361.4945359007021 279.5643654763432Z " fill="white" transform="matrix(0.8303183393365077,0,0,0.8303183393365077,0,18.162099003771303)"/><path d="M577.5620384218028 264.43353634139885L577.5620384218028 264.43353634139885Q580.2647410217415 264.43353634139885 581.5585880110739 265.12358806904274Q582.8524350004063 265.7848876413682 584.5200600088791 267.8550428243L584.5200600088791 267.8550428243L670.4315001005489 379.6434227026173Q670.1152263920453 376.9407201026785 670.0002177707713 374.41053043465075Q669.9139613048159 371.880340766623 669.9139613048159 369.49391187518773L669.9139613048159 369.49391187518773L669.9139613048159 264.43353634139885L687.5102803597362 264.43353634139885L687.5102803597362 412.76590562952606L677.3607695323067 412.76590562952606Q674.9743406408714 412.76590562952606 673.3642199430356 411.9320931252896Q671.7540992451997 411.0982806210532 670.2014828580009 409.1431340593954L670.2014828580009 409.1431340593954L584.4050513876051 297.46976280235214Q584.6063164748346 300.0574567810169 584.7213250961086 302.53014213840765Q584.8075815620641 305.00282749579844 584.8075815620641 307.0729826787302L584.8075815620641 307.0729826787302L584.8075815620641 412.76590562952606L567.2112625071438 412.76590562952606L567.2112625071438 264.43353634139885L577.5620384218028 264.43353634139885ZM762.323388498466 306.26792232981234L762.323388498466 306.26792232981234Q771.7540954429331 306.26792232981234 779.7184424661568 309.4019072595285Q787.6827894893805 312.5646443445632 793.490724863717 318.51634049549216Q799.2986602380533 324.46803664642107 802.5476537890436 333.2086918632442Q805.7966473400338 341.97809923538586 805.7966473400338 353.1339354989628L805.7966473400338 353.1339354989628Q805.7966473400338 357.5042631073744 804.8765783698418 358.94187087329925Q803.9565093996499 360.3794786392241 801.3688154209852 360.3794786392241L801.3688154209852 360.3794786392241L731.5873344629924 360.3794786392241Q731.788599550222 370.3277243794241 734.2900370629312 377.68827614095943Q736.762722420322 385.02007574717624 741.104297873415 389.93669430663925Q745.4746254818266 394.85331286610227 751.4550737880741 397.29724606817456Q757.46427424964 399.71242711492835 764.9110824771308 399.71242711492835L764.9110824771308 399.71242711492835Q771.869104064207 399.71242711492835 776.8719790896256 398.13105857241095Q781.9036062703626 396.5209378745751 785.5263778404932 394.65204777887277Q789.1491494106239 392.7831576831705 791.5643304573777 391.17303698533465Q794.00826365945 389.5916684428173 795.7621451338782 389.5916684428173L795.7621451338782 389.5916684428173Q798.0335654040396 389.5916684428173 799.2986602380533 391.34554991724565L799.2986602380533 391.34554991724565L804.4740481953829 398.073554261774Q801.0525417124818 402.2138646276376 796.2796839296112 405.26159309139825Q791.5355783020591 408.309321555159 786.1014209468632 410.2932202721353Q780.6672635916673 412.2483668337931 774.8593282173308 413.225940114622Q769.0513928429943 414.20351339545095 763.3584660899319 414.20351339545095L763.3584660899319 414.20351339545095Q752.49015137954 414.20351339545095 743.3469659882578 410.5519896700017Q734.1750284416572 406.87171378923415 727.5045284077659 399.76993142556535Q720.8340283738745 392.696901217215 717.0962481824698 382.231116681282Q713.3872201463837 371.765332145349 713.3872201463837 358.2230669903368L713.3872201463837 358.2230669903368Q713.3872201463837 347.2397436586709 716.7512223186479 337.7227802482483Q720.115224490912 328.2058168378257 726.411946505663 321.2190430954309Q732.7374206757323 314.23226935303603 741.8518539116959 310.23571976376496Q750.937534992341 306.26792232981234 762.323388498466 306.26792232981234ZM762.7546708282434 319.8101874848245L762.7546708282434 319.8101874848245Q749.3849186051423 319.8101874848245 741.7368452904219 327.51576511018175Q734.0887719757017 335.25009489085755 732.2198818799993 348.9073686671437L732.2198818799993 348.9073686671437L789.2354058765794 348.9073686671437Q789.2354058765794 342.4956380311188 787.4815244021511 337.14773714187834Q785.7276429277227 331.8285884079563 782.3061364448215 327.94704743995925Q778.8846299619204 324.0655064719621 773.9680114024574 321.9378469783933Q769.0513928429943 319.8101874848245 762.7546708282434 319.8101874848245ZM849.5861798901051 412.76590562952606L815.6298844589599 307.9067951829667L830.1209707394825 307.9067951829667Q832.4211431649622 307.9067951829667 833.858750930887 309.05688139570657Q835.2963586968119 310.17821545312796 835.8138974925449 311.7308318403268L835.8138974925449 311.7308318403268L855.9116540601744 379.24089252815827Q856.7454665644109 382.9499205642444 857.4642704473733 386.42893135778263Q858.1830743303358 389.87918999600225 858.7006131260687 393.41570510017743L858.7006131260687 393.41570510017743Q859.5344256303051 389.87918999600225 860.569503221771 386.42893135778263Q861.6045808132369 382.9499205642444 862.7259148706582 379.24089252815827L862.7259148706582 379.24089252815827L884.8938266212197 311.3283016658678Q885.4113654169525 309.77568527866896 886.705212406285 308.74060768720307Q887.9990593956173 307.7055300957372 889.9542059572752 307.7055300957372L889.9542059572752 307.7055300957372L897.9185529804989 307.7055300957372Q899.9887081634307 307.7055300957372 901.3400594634 308.74060768720307Q902.6914107633695 309.77568527866896 903.2089495591024 311.3283016658678L903.2089495591024 311.3283016658678L924.8305703586122 379.24089252815827Q925.9806565713523 382.86366409828895 926.8719733862256 386.37142704714563Q927.7345380457805 389.87918999600225 928.5683505500169 393.30069647890343L928.5683505500169 393.30069647890343Q929.0858893457498 389.87918999600225 929.9197018499863 386.17016195991613Q930.7535143542227 382.4323817685115 931.6735833244147 379.24089252815827L931.6735833244147 379.24089252815827L952.1738700665032 311.7308318403268Q952.6914088622361 310.09195898717246 954.129016628161 308.99937708506957Q955.5953765494044 307.9067951829667 957.5505231110621 307.9067951829667L957.5505231110621 307.9067951829667L971.4090619745778 307.9067951829667L937.4815186987511 412.76590562952606L922.8754237969545 412.76590562952606Q920.1727211970158 412.76590562952606 919.1376436055499 409.2581426806694L919.1376436055499 409.2581426806694L895.963406418841 338.12531042270723Q895.1295939146047 335.76763368659044 894.6120551188717 333.3237004845182Q894.0945163231388 330.8797672824459 893.5769775274058 328.5220905463292L893.5769775274058 328.5220905463292Q893.0594387316728 330.8797672824459 892.5418999359399 333.3812047951552Q892.024361140207 335.85389015254594 891.1905486359706 338.24031904398123L891.1905486359706 338.24031904398123L867.7000377407583 409.2581426806694Q866.5787036833369 412.76590562952606 863.4734709089391 412.76590562952606L863.4734709089391 412.76590562952606L849.5861798901051 412.76590562952606ZM1052.0588576429625 318.45883618485516L1047.918547277099 325.1868405293835Q1046.6822045984036 327.48701295486325 1044.0945106197387 327.48701295486325L1044.0945106197387 327.48701295486325Q1042.54189423254 327.48701295486325 1040.5579955155636 326.3369267421234Q1038.6028489539058 325.1868405293835 1035.7563855773747 323.8067370740956Q1032.9099222008433 322.3978814634893 1028.9708769222093 321.2190430954309Q1025.031831643575 320.011452572054 1019.6551785990162 320.011452572054L1019.6551785990162 320.011452572054Q1014.9973294374196 320.011452572054 1011.259549246015 321.2190430954309Q1007.5505212099289 322.3978814634893 1004.9053229206272 324.46803664642107Q1002.2601246313254 326.53819182935285 1000.8800211760374 329.2983987399286Q999.4711655654312 332.0298534951859 999.4711655654312 335.25009489085755L999.4711655654312 335.25009489085755Q999.4711655654312 339.2753966354471 1001.8000901462294 341.97809923538586Q1004.1290147270277 344.65204968000614 1007.9530513843879 346.6359483969824Q1011.7770880417479 348.59109495864027 1016.6649544458925 350.0862070352021Q1021.5240686947185 351.58131911176395 1026.641952341411 353.3064484308738Q1031.7598359881035 355.0028255946651 1036.6189502369295 357.0729807775969Q1041.506816641074 359.14313596052875 1045.3308532984342 362.24836873492643Q1049.1548899557943 365.3536015093241 1051.4838145365925 369.8676898943282Q1053.812739117391 374.35302612401375 1053.812739117391 380.67850029408316L1053.812739117391 380.67850029408316Q1053.812739117391 387.92404343434447 1051.225045138726 394.0770046725029Q1048.6373511600614 400.22996591066124 1043.5769718240058 404.74405429566536Q1038.487840332632 409.2581426806694 1031.156040726415 411.84583665933417Q1023.7954889648797 414.4335306379989 1014.1635169331832 414.4335306379989L1014.1635169331832 414.4335306379989Q1003.2089457568358 414.4335306379989 994.2957776081016 410.8395112231867Q985.3826094593675 407.2742439636931 979.172143910572 401.69632583190463L979.172143910572 401.69632583190463L983.5424715189836 394.65204777887277Q984.3475318679016 393.30069647890343 985.4976180806416 392.581892595941Q986.6477042933814 391.8630887129786 988.4878422337652 391.8630887129786L988.4878422337652 391.8630887129786Q990.3567323294676 391.8630887129786 992.4268875123993 393.30069647890343Q994.4970426953312 394.76705640014677 997.4585146931363 396.5209378745751Q1000.391234535623 398.27481934900345 1004.5890492121237 399.71242711492835Q1008.7868638886243 401.1787870361717 1015.1123380586936 401.1787870361717L1015.1123380586936 401.1787870361717Q1020.4889911032526 401.1787870361717 1024.5142928478422 399.76993142556535Q1028.5683467477504 398.38982797027745 1031.2422971923706 396.00339907884216Q1033.9449997923093 393.6169701874069 1035.2388467816418 390.5117374130092Q1036.5326937709742 387.4065046386115 1036.5326937709742 383.89874168975484L1036.5326937709742 383.89874168975484Q1036.5326937709742 379.52841408134327 1034.2037691901758 376.68195070481204Q1031.8748446093775 373.8354873282808 1028.0508079520173 371.822836455986Q1024.1980191393386 369.8101855836912 1019.2814005798757 368.31507350712934Q1014.3647820204127 366.81996143056745 1009.2468983737201 365.15233642209466Q1004.1290147270277 363.48471141362177 999.2123961675645 361.3858040753715Q994.2957776081016 359.2581445818027 990.4717409507416 356.037903186131Q986.6477042933814 352.84641394577784 984.3187797125831 348.13106047354427Q981.9898551317849 343.41570700131075 981.9898551317849 336.6877026567824L981.9898551317849 336.6877026567824Q981.9898551317849 330.6785021952165 984.4625404891756 325.158088374065Q986.9352258465664 319.60892239759505 991.7080836294369 315.4111077210944Q996.4809414123074 311.21329304459385 1003.4102108440652 308.74060768720307Q1010.339480275823 306.26792232981234 1019.2526484245572 306.26792232981234L1019.2526484245572 306.26792232981234Q1029.6034243392162 306.26792232981234 1037.8265407603064 309.5169158808025Q1046.0496571813967 312.7659094317927 1052.0588576429625 318.45883618485516L1052.0588576429625 318.45883618485516Z " fill="white" transform="matrix(0.8303183393365077,0,0,0.8303183393365077,0,18.162099003771303)"/></g></svg>